<svg width="25" height="24" viewBox="0 0 25 24" fill="none" xmlns="http://www.w3.org/2000/svg">
<g clip-path="url(#clip0_776_68883)">
<path d="M13.4947 6.13125V3.75C13.4947 3.55109 13.4157 3.36032 13.2751 3.21967C13.1344 3.07902 12.9436 3 12.7447 3C12.5458 3 12.355 3.07902 12.2144 3.21967C12.0737 3.36032 11.9947 3.55109 11.9947 3.75V6.13125C11.5578 6.2874 11.1799 6.5748 10.9126 6.9541C10.6454 7.33339 10.502 7.78602 10.502 8.25C10.502 8.71398 10.6454 9.16661 10.9126 9.5459C11.1799 9.9252 11.5578 10.2126 11.9947 10.3687V20.25C11.9947 20.4489 12.0737 20.6397 12.2144 20.7803C12.355 20.921 12.5458 21 12.7447 21C12.9436 21 13.1344 20.921 13.2751 20.7803C13.4157 20.6397 13.4947 20.4489 13.4947 20.25V10.3687C13.9316 10.2126 14.3096 9.9252 14.5768 9.5459C14.8441 9.16661 14.9875 8.71398 14.9875 8.25C14.9875 7.78602 14.8441 7.33339 14.5768 6.9541C14.3096 6.5748 13.9316 6.2874 13.4947 6.13125Z" fill="#FAFAFA"/>
<path d="M21.7447 15.75C21.7442 15.2852 21.5997 14.8319 21.3311 14.4525C21.0625 14.0731 20.683 13.7862 20.2447 13.6312V3.75C20.2447 3.55109 20.1657 3.36032 20.0251 3.21967C19.8844 3.07902 19.6936 3 19.4947 3C19.2958 3 19.105 3.07902 18.9644 3.21967C18.8237 3.36032 18.7447 3.55109 18.7447 3.75V13.6312C18.3078 13.7874 17.9299 14.0748 17.6626 14.4541C17.3954 14.8334 17.252 15.286 17.252 15.75C17.252 16.214 17.3954 16.6666 17.6626 17.0459C17.9299 17.4252 18.3078 17.7126 18.7447 17.8688V20.25C18.7447 20.4489 18.8237 20.6397 18.9644 20.7803C19.105 20.921 19.2958 21 19.4947 21C19.6936 21 19.8844 20.921 20.0251 20.7803C20.1657 20.6397 20.2447 20.4489 20.2447 20.25V17.8688C20.683 17.7138 21.0625 17.4269 21.3311 17.0475C21.5997 16.6681 21.7442 16.2148 21.7447 15.75Z" fill="#FAFAFA"/>
<path d="M6.74472 10.6313V3.75C6.74472 3.55109 6.6657 3.36032 6.52505 3.21967C6.3844 3.07902 6.19363 3 5.99472 3C5.79581 3 5.60504 3.07902 5.46439 3.21967C5.32374 3.36032 5.24472 3.55109 5.24472 3.75V10.6313C4.80781 10.7874 4.42985 11.0748 4.16262 11.4541C3.89539 11.8334 3.75195 12.286 3.75195 12.75C3.75195 13.214 3.89539 13.6666 4.16262 14.0459C4.42985 14.4252 4.80781 14.7126 5.24472 14.8688V20.25C5.24472 20.4489 5.32374 20.6397 5.46439 20.7803C5.60504 20.921 5.79581 21 5.99472 21C6.19363 21 6.3844 20.921 6.52505 20.7803C6.6657 20.6397 6.74472 20.4489 6.74472 20.25V14.8688C7.18163 14.7126 7.55959 14.4252 7.82682 14.0459C8.09405 13.6666 8.23749 13.214 8.23749 12.75C8.23749 12.286 8.09405 11.8334 7.82682 11.4541C7.55959 11.0748 7.18163 10.7874 6.74472 10.6313Z" fill="#FAFAFA"/>
</g>
<defs>
<clipPath id="clip0_776_68883">
<rect width="24" height="24" fill="white" transform="translate(0.744141)"/>
</clipPath>
</defs>
</svg>
