<svg width="25" height="25" viewBox="0 0 25 25" fill="none" xmlns="http://www.w3.org/2000/svg">
<g clip-path="url(#clip0_1002_33939)">
<path d="M8.64648 15.5522C11.3389 15.5522 13.5215 13.3696 13.5215 10.6772C13.5215 7.98486 11.3389 5.80225 8.64648 5.80225C5.9541 5.80225 3.77148 7.98486 3.77148 10.6772C3.77148 13.3696 5.9541 15.5522 8.64648 15.5522Z" stroke="black" stroke-linecap="round" stroke-linejoin="round"/>
<path d="M14.9648 5.98037C15.3958 5.86349 15.8402 5.80361 16.2867 5.80225C17.5796 5.80225 18.8196 6.31586 19.7339 7.2301C20.6481 8.14434 21.1617 9.38432 21.1617 10.6772C21.1617 11.9702 20.6481 13.2102 19.7339 14.1244C18.8196 15.0386 17.5796 15.5522 16.2867 15.5522" stroke="black" stroke-linecap="round" stroke-linejoin="round"/>
<path d="M1.89648 19.0586C2.65768 17.9754 3.66839 17.0913 4.84324 16.4809C6.01809 15.8706 7.32256 15.552 8.64648 15.552C9.9704 15.552 11.2749 15.8706 12.4497 16.4809C13.6246 17.0913 14.6353 17.9754 15.3965 19.0586" stroke="black" stroke-linecap="round" stroke-linejoin="round"/>
<path d="M16.2871 15.5522C17.6111 15.5514 18.9159 15.8697 20.0909 16.48C21.2658 17.0903 22.2764 17.9748 23.0371 19.0585" stroke="black" stroke-linecap="round" stroke-linejoin="round"/>
</g>
<defs>
<clipPath id="clip0_1002_33939">
<rect width="24" height="24" fill="white" transform="translate(0.396484 0.552246)"/>
</clipPath>
</defs>
</svg>
