<svg width="20" height="18" viewBox="0 0 20 18" fill="none" xmlns="http://www.w3.org/2000/svg">
<path d="M2.31798 2.31789C1.90011 2.73575 1.56864 3.23183 1.34249 3.7778C1.11634 4.32377 0.999939 4.90893 0.999939 5.49989C0.999939 6.09084 1.11634 6.67601 1.34249 7.22197C1.56864 7.76794 1.90011 8.26402 2.31798 8.68189L9.99998 16.3639L17.682 8.68189C18.5259 7.83797 19 6.69337 19 5.49989C19 4.30641 18.5259 3.16181 17.682 2.31789C16.8381 1.47397 15.6935 0.999859 14.5 0.999859C13.3065 0.999859 12.1619 1.47397 11.318 2.31789L9.99998 3.63589L8.68198 2.31789C8.26411 1.90002 7.76803 1.56854 7.22207 1.34239C6.6761 1.11625 6.09093 0.999847 5.49998 0.999847C4.90903 0.999847 4.32386 1.11625 3.77789 1.34239C3.23192 1.56854 2.73584 1.90002 2.31798 2.31789V2.31789Z" stroke="#FAFAFA" stroke-width="2" stroke-linecap="round" stroke-linejoin="round"/>
</svg>
