<svg width="21" height="21" viewBox="0 0 21 21" fill="none" xmlns="http://www.w3.org/2000/svg">
<path fill-rule="evenodd" clip-rule="evenodd" d="M10.244 0.0835325C8.84949 0.179234 7.58051 0.521025 6.37156 1.12651C4.59277 2.01739 3.09126 3.45165 2.1222 5.18553C1.39109 6.49368 0.968693 7.93261 0.870374 9.44994C0.848594 9.786 0.861002 10.7031 0.891431 11.0067C0.978804 11.8783 1.16493 12.7131 1.44107 13.472C1.53881 13.7405 1.56531 13.8059 1.57656 13.8059C1.5811 13.8059 1.60391 13.7898 1.62727 13.7702C1.73408 13.6803 1.88891 13.6226 2.24336 13.5408C2.53215 13.4741 3.00234 13.3097 3.00234 13.2755C3.00234 13.269 2.98913 13.2306 2.97296 13.1902C2.72723 12.5743 2.54285 11.8679 2.45391 11.2017C2.41918 10.9415 2.38154 10.5363 2.39127 10.5273C2.39418 10.5246 2.54382 10.5284 2.72382 10.5357C2.90381 10.543 3.08868 10.5454 3.13464 10.541C3.52143 10.504 3.81146 10.1858 3.81449 9.79512C3.81723 9.44255 3.60295 9.15122 3.26694 9.05069C3.21154 9.03412 3.08821 9.02378 2.8213 9.01333C2.61833 9.00539 2.45049 8.99714 2.44833 8.99501C2.44617 8.99288 2.4576 8.90413 2.47374 8.79778C2.70387 7.28192 3.34869 5.8528 4.34241 4.65617C5.68213 3.04289 7.61208 1.96494 9.67639 1.67692C9.85984 1.65132 10.2934 1.6067 10.3602 1.60655C10.3847 1.60649 10.3853 1.62263 10.3757 1.97353C10.3644 2.38497 10.3691 2.42498 10.4489 2.59371C10.6054 2.9246 11.0151 3.09139 11.3744 2.9705C11.4863 2.93284 11.6335 2.83537 11.7058 2.75112C11.7737 2.67195 11.8517 2.51619 11.8713 2.42063C11.8792 2.38203 11.8895 2.22849 11.894 2.07944C11.8986 1.93037 11.9057 1.775 11.9099 1.73415L11.9174 1.6599L11.9894 1.66923C12.6404 1.75369 13.3724 1.94746 14.025 2.20805C14.2902 2.31394 14.8714 2.59975 15.1251 2.74899C16.1843 3.37206 17.0666 4.18346 17.7946 5.20394C18.6628 6.42094 19.2128 7.95429 19.3182 9.45145L19.3279 9.58823L19.2806 9.58007C19.2546 9.57558 19.0704 9.57043 18.8713 9.56862C18.5235 9.56546 18.5055 9.56662 18.415 9.59788C17.8752 9.7843 17.725 10.4808 18.1401 10.8724C18.3229 11.0448 18.4165 11.0716 18.9058 11.0912C19.1087 11.0993 19.2756 11.1071 19.2768 11.1086C19.2798 11.112 19.2594 11.2522 19.2248 11.4663C19.1541 11.9044 18.9625 12.6412 18.844 12.9305C18.837 12.9476 18.8704 12.9827 18.9783 13.0713C19.2975 13.3334 19.6433 13.5903 19.8461 13.7159C19.9074 13.7539 19.991 13.8121 20.0318 13.8453C20.0727 13.8785 20.1087 13.9031 20.1117 13.9C20.1148 13.8969 20.155 13.7957 20.2011 13.6751C20.5491 12.7639 20.7554 11.8516 20.8347 10.8739C20.8636 10.5186 20.8633 9.62682 20.8342 9.2639C20.562 5.86481 18.5751 2.84405 15.5505 1.231C14.5421 0.693167 13.4191 0.329289 12.2633 0.165823C11.7842 0.0980576 11.5831 0.0853429 10.9333 0.0817082C10.5963 0.0798142 10.2861 0.0806358 10.244 0.0835325ZM15.8145 5.20149C15.6781 5.22354 15.6009 5.27359 15.3905 5.47633C15.2828 5.58005 14.2273 6.61144 13.0449 7.76831L10.895 9.87171L10.8028 9.87954C10.752 9.88384 10.7042 9.88316 10.6966 9.87801C10.6889 9.87285 9.86484 9.20506 8.86529 8.39401C7.51975 7.30225 7.02283 6.90675 6.95131 6.87064C6.85825 6.82365 6.84906 6.82187 6.70063 6.82187C6.5554 6.82187 6.54132 6.82443 6.45502 6.86667C6.34329 6.92134 6.23277 7.03355 6.18025 7.14561C6.14624 7.21818 6.14272 7.24082 6.1429 7.38588C6.14307 7.52905 6.14693 7.55415 6.17921 7.62262C6.19908 7.66475 6.23973 7.72619 6.26955 7.75916C6.29935 7.79212 7.1446 8.4846 8.14786 9.29801L9.97198 10.7769L9.99629 10.8953C10.0623 11.2168 10.2714 11.4495 10.5921 11.5585C10.7002 11.5952 10.9715 11.5952 11.0796 11.5585C11.3841 11.455 11.5889 11.2394 11.6648 10.9425C11.68 10.8835 11.6923 10.8056 11.6923 10.7695V10.7038L13.8402 8.6027C16.6116 5.89155 16.3878 6.11473 16.436 6.01414C16.4729 5.93708 16.476 5.91814 16.476 5.77044C16.476 5.62506 16.4725 5.60279 16.4379 5.52901C16.3865 5.41927 16.3297 5.3506 16.2425 5.29286C16.1156 5.2088 15.9663 5.17694 15.8145 5.20149ZM10.7933 12.3148C10.7631 12.3373 10.6538 12.4479 10.5504 12.5605C10.0281 13.1296 9.45813 13.5712 8.9162 13.8265C8.48683 14.0288 8.11812 14.1217 7.68761 14.1361C7.21682 14.1517 6.76279 14.0663 6.25412 13.8662C5.75504 13.6699 5.35614 13.4069 5.00798 13.0447C4.92082 12.954 4.82785 12.8626 4.80136 12.8415C4.74513 12.7968 4.67033 12.7907 4.61741 12.8265C4.59847 12.8393 4.47957 12.9507 4.35319 13.0739C4.02677 13.3923 3.72674 13.6101 3.36388 13.7922C3.0831 13.9331 2.73088 14.0601 2.41744 14.1334C2.08931 14.2102 2.03596 14.2271 1.99617 14.2668C1.95116 14.3118 1.94899 14.3392 1.98328 14.4295C2.03844 14.5746 3.04422 16.1963 3.15059 16.3115C3.21721 16.3837 3.22667 16.3892 3.28509 16.3892C3.33445 16.3892 3.35938 16.38 3.40143 16.3462C3.47131 16.29 3.62984 16.0799 3.87969 15.7122C4.09357 15.3975 4.18317 15.2901 4.24483 15.2748C4.32422 15.255 4.41038 15.3425 4.59557 15.631C4.6936 15.7837 4.79594 15.8958 4.99162 16.0648C5.7993 16.762 6.76373 17.1005 7.76163 17.0369C8.8808 16.9656 9.83663 16.4894 10.9453 15.4509C11.1347 15.2735 11.1862 15.2474 11.269 15.2869C11.296 15.2998 11.3929 15.377 11.4842 15.4585C12.1935 16.0916 12.9785 16.5616 13.9066 16.9088C14.2814 17.0491 14.6608 17.1467 15.0361 17.1995C15.2811 17.2339 15.8801 17.2337 16.1139 17.1991C16.4739 17.1458 16.7914 17.0618 17.1305 16.9302C18.1364 16.5397 18.9513 15.8229 19.5955 14.7619C19.7048 14.5818 19.7399 14.5069 19.7411 14.451C19.7421 14.3984 19.6719 14.3346 19.4635 14.1987C18.9715 13.8778 18.0386 13.1158 17.4164 12.5265C17.3515 12.4651 17.2976 12.416 17.2965 12.4175C17.2955 12.419 17.246 12.5111 17.1866 12.6221C17.0101 12.9516 16.8392 13.2302 16.6955 13.4227C16.5495 13.6183 16.2978 13.8871 16.1417 14.0142C15.3419 14.6654 14.4002 14.6879 13.1965 14.0845C12.4713 13.7209 11.8187 13.2078 11.2003 12.5148C11.11 12.4137 11.0154 12.3181 10.9901 12.3025C10.9242 12.2617 10.8593 12.2658 10.7933 12.3148ZM11.0736 16.3288C11.0435 16.3446 10.868 16.4706 10.6836 16.6087C10.0349 17.0946 9.58366 17.3674 9.09856 17.5668C8.34503 17.8766 7.6484 17.9411 6.78207 17.7813C6.03224 17.643 5.32734 17.3277 4.7849 16.8878C4.71979 16.8351 4.61574 16.7507 4.55367 16.7004C4.4916 16.6501 4.41169 16.5978 4.37611 16.5842C4.27399 16.5452 4.21544 16.5747 4.03674 16.7554C3.95718 16.8358 3.87989 16.9255 3.86499 16.9547C3.82854 17.0262 3.8302 17.1048 3.86937 17.1629C3.90342 17.2134 4.69769 17.9019 4.99438 18.1381C5.79635 18.7765 6.70352 19.2771 7.63227 19.5937C8.35361 19.8396 9.03666 19.976 9.93761 20.0541C10.3039 20.0858 11.5818 20.0904 11.9012 20.0611C12.884 19.971 13.739 19.7605 14.6521 19.3837C14.9453 19.2628 15.5944 18.9389 15.8911 18.7656C16.2108 18.5788 16.6451 18.2495 16.9564 17.9579L17.0469 17.8731L16.9216 17.8832C16.7151 17.8997 15.5231 17.8936 15.2505 17.8746C14.4071 17.8157 13.8851 17.7439 13.5964 17.647C13.0136 17.4515 12.3896 17.0951 11.6316 16.5249C11.4948 16.4219 11.3618 16.3289 11.3361 16.3182C11.2665 16.2891 11.139 16.2943 11.0736 16.3288Z" fill="#FD5E00"/>
</svg>
