<svg width="22" height="19" viewBox="0 0 22 19" fill="none" xmlns="http://www.w3.org/2000/svg">
<path d="M0.5 17.3307H21.4985V18.8307H0.5V17.3307ZM11 12.0807C11.7953 12.0817 12.5578 12.3981 13.1202 12.9605C13.6826 13.5229 13.999 14.2853 14 15.0807H15.5C15.5 13.8872 15.0259 12.7426 14.182 11.8987C13.3381 11.0548 12.1935 10.5807 11 10.5807C9.80653 10.5807 8.66193 11.0548 7.81802 11.8987C6.97411 12.7426 6.5 13.8872 6.5 15.0807H8C8.00099 14.2853 8.31738 13.5229 8.87978 12.9605C9.44217 12.3981 10.2047 12.0817 11 12.0807ZM17.75 13.5807H21.5V15.0807H17.75V13.5807ZM15.2653 9.75569L17.8948 7.12544L18.9552 8.18594L16.3258 10.8154L15.2653 9.75569ZM11 0.0806885L7.25 3.83069L8.3075 4.88819L10.25 2.95319V8.33069H11.75V2.95319L13.6925 4.88819L14.75 3.83069L11 0.0806885ZM3.04475 8.18594L4.10525 7.12544L6.73475 9.75494L5.675 10.8154L3.04475 8.18594ZM0.5 13.5807H4.25V15.0807H0.5V13.5807Z" fill="#FEAD00"/>
</svg>
