<svg width="22" height="19" viewBox="0 0 22 19" fill="none" xmlns="http://www.w3.org/2000/svg">
<path d="M0.699219 17.185H21.2993V18.6566H0.699219V17.185ZM11 12.0346C11.7803 12.0356 12.5283 12.346 13.08 12.8977C13.6317 13.4495 13.9421 14.1975 13.9431 14.9777H15.4146C15.4146 13.8069 14.9495 12.684 14.1216 11.8561C13.2937 11.0282 12.1708 10.5631 11 10.5631C9.82917 10.5631 8.70629 11.0282 7.87839 11.8561C7.05049 12.684 6.58538 13.8069 6.58538 14.9777H8.05692C8.05789 14.1975 8.36828 13.4495 8.92 12.8977C9.47173 12.346 10.2197 12.0356 11 12.0346ZM17.6219 13.5062H21.3008V14.9777H17.6219V13.5062ZM15.1843 9.75303L17.7639 7.17342L18.8043 8.2138L16.2247 10.7934L15.1843 9.75303ZM13.6414 4.37528L11.7358 6.27357V0.262329H10.2642V6.27357L8.35859 4.37528L7.32115 5.41272L11 9.09157L14.6789 5.41272L13.6414 4.37528ZM3.19642 8.2138L4.2368 7.17342L6.81641 9.75303L5.7753 10.7934L3.19642 8.2138ZM0.699219 13.5062H4.37807V14.9777H0.699219V13.5062Z" fill="#FD5E00"/>
</svg>
