<svg width="24" height="25" viewBox="0 0 24 25" fill="none" xmlns="http://www.w3.org/2000/svg">
<g clip-path="url(#clip0_657_9460)">
<path d="M12 17.7057C15.1066 17.7057 17.625 15.1873 17.625 12.0807C17.625 8.97409 15.1066 6.45569 12 6.45569C8.8934 6.45569 6.375 8.97409 6.375 12.0807C6.375 15.1873 8.8934 17.7057 12 17.7057Z" stroke="#021218" stroke-width="1.5" stroke-linecap="round" stroke-linejoin="round"/>
<path d="M12 3.45569V1.58069" stroke="#021218" stroke-width="1.5" stroke-linecap="round" stroke-linejoin="round"/>
<path d="M5.89805 5.97742L4.57617 4.65555" stroke="#021218" stroke-width="1.5" stroke-linecap="round" stroke-linejoin="round"/>
<path d="M3.37305 12.0807H1.49805" stroke="#021218" stroke-width="1.5" stroke-linecap="round" stroke-linejoin="round"/>
<path d="M5.89805 18.1838L4.57617 19.5057" stroke="#021218" stroke-width="1.5" stroke-linecap="round" stroke-linejoin="round"/>
<path d="M12 20.7055V22.5805" stroke="#021218" stroke-width="1.5" stroke-linecap="round" stroke-linejoin="round"/>
<path d="M18.1035 18.1837L19.4254 19.5056" stroke="#021218" stroke-width="1.5" stroke-linecap="round" stroke-linejoin="round"/>
<path d="M20.625 12.0807H22.5" stroke="#021218" stroke-width="1.5" stroke-linecap="round" stroke-linejoin="round"/>
<path d="M18.1035 5.97751L19.4254 4.65564" stroke="#021218" stroke-width="1.5" stroke-linecap="round" stroke-linejoin="round"/>
</g>
<defs>
<clipPath id="clip0_657_9460">
<rect width="24" height="24" fill="white" transform="translate(0 0.0806885)"/>
</clipPath>
</defs>
</svg>
